{"title":"The Melancholy of Haruhi Suzumiya","uid":9555760,"size":1692182334,"categoryP":"video","categoryS":"tv_shows","magnet":"?xt=urn:btih:695b4c3bdf4b4a7898a02ab615976049c3d889fc&amp;dn=The+Melancholy+of+Haruhi+Suzumiya&amp;tr=udp%3A%2F%2Ftracker.openbittorrent.com%3A80&amp;tr=udp%3A%2F%2Fopen.demonii.com%3A1337&amp;tr=udp%3A%2F%2Ftracker.coppersurfer.tk%3A6969&amp;tr=udp%3A%2F%2Fexodus.desync.com%3A6969","seeders":1,"leechers":0,"uploader":"p7trick","files":-1,"time":1391359521,"description":"downloaded from justdubs\n\nThe Melancholy of Haruhi Suzumiya eps 1-28 ENGLISH DUBBED\n_________________________________________________________\n\nFormat                                   : MPEG-4\nFormat profile                           : Base Media\nCodec ID                                 : isom\nFile size                                : 58.3 MiB\nDuration                                 : 24mn 41s\nOverall bit rate mode                    : Variable\nOverall bit rate                         : 330 Kbps\n\n\nVideo\nID                                       : 1\nFormat                                   : AVC\nFormat/Info                              : Advanced Video Codec\nFormat profile                           : &lt;a class=&quot;__cf_email__&quot; href=&quot;/cdn-cgi/l/email-protection&quot; data-cfemail=&quot;4800212f2008047b6678&quot;&gt;[email&amp;#160;protected]&lt;/a&gt;&lt;script cf-hash='f9e31' type=&quot;text/javascript&quot;&gt;\n/* &lt;![CDATA[ */!function(){try{var t=&quot;currentScript&quot;in document?document.currentScript:function(){for(var t=document.getElementsByTagName(&quot;script&quot;),e=t.length;e--;)if(t[e].getAttribute(&quot;cf-hash&quot;))return t[e]}();if(t&amp;&amp;t.previousSibling){var e,r,n,i,c=t.previousSibling,a=c.getAttribute(&quot;data-cfemail&quot;);if(a){for(e=&quot;&quot;,r=parseInt(a.substr(0,2),16),n=2;a.length-n;n+=2)i=parseInt(a.substr(n,2),16)^r,e+=String.fromCharCode(i);e=document.createTextNode(e),c.parentNode.replaceChild(e,c)}}}catch(u){}}();/* ]]&gt; */&lt;/script&gt;\nFormat settings, CABAC                   : Yes\nFormat settings, ReFrames                : 8 frames\nCodec ID                                 : avc1\nCodec ID/Info                            : Advanced Video Coding\nDuration                                 : 24mn 41s\nBit rate mode                            : Variable\nBit rate                                 : 275 Kbps\nMaximum bit rate                         : 5 138 Kbps\nWidth                                    : 640 pixels\nHeight                                   : 360 pixels\nDisplay aspect ratio                     : 16:9\nFrame rate mode                          : Constant\nFrame rate                               : 23.976 fps\nColor space                              : YUV\nChroma subsampling                       : 4:2:0\nBit depth                                : 8 bits\nScan type                                : Progressive\nBits/(Pixel*Frame)                       : 0.050\nStream size                              : 48.5 MiB (83%)\n\nAudio\nID                                       : 2\nFormat                                   : AAC\nFormat/Info                              : Advanced Audio Codec\nFormat profile                           : HE-AAC / LC\nCodec ID                                 : 40\nDuration                                 : 24mn 41s\nBit rate mode                            : Variable\nBit rate                                 : 52.0 Kbps\nMaximum bit rate                         : 63.6 Kbps\nChannel count                            : 2 channels\nChannel positions                        : Front: L R\nSampling rate                            : 48.0 KHz / 24.0 KHz\nCompression mode                         : Lossy\nDelay relative to video                  : 83ms\nStream size                              : 9.18 MiB (16%)\nLanguage                                 : English\n_________________________________________________________\n\nSummary:\nA far from ordinary school story begins here!\n\nThis is a story of Suzumiya Haruhi, who upon enrolling at school announces: &quot;I have no interest in ordinary humans. If there are any aliens, beings from the future, or espers, come see me. That is all!&quot;\n\nNaturally, any normal person would think &quot;What the...?&quot;, but Haruhi is dead serious. Things get crazy when everyone realizes just how serious she is about it all and establishes the SOS Dan.\n\nSuzumiya Haruhi is a good-looking high school girl with a clear head, naughty personality and a very egocentric way of thinking. She has the unimaginable power to change the world, but is completely unaware of this power, and so she is also unaware of the effect her power has on the outside world.\n\nA delightfully strange, yet marvellously interesting story!\n\n\nFor updates/requests:\nTwitter - @p7tricktorrent\nFacebook - /p7tricktorrent\nTPB - /user/p7trick/\nKAT - /user/iPirate7\n_________________________________________________________\n\nSEED!\n\nshare ratio:\n&quot;Scumbag = 0.1:1\nLeecher = 0.999:1\nMinimum = 1:1\nGood = 3:1\nGreat = 5:1\nAwesome = 10:1\n1337 = 100:1&quot;\t\t","torrent":{"xt":"urn:btih:695b4c3bdf4b4a7898a02ab615976049c3d889fc","amp;dn":"The+Melancholy+of+Haruhi+Suzumiya","amp;tr":["udp%3A%2F%2Ftracker.openbittorrent.com%3A80","udp%3A%2F%2Fopen.demonii.com%3A1337","udp%3A%2F%2Ftracker.coppersurfer.tk%3A6969","udp%3A%2F%2Fexodus.desync.com%3A6969"],"infoHash":"695b4c3bdf4b4a7898a02ab615976049c3d889fc","infoHashBuffer":{"type":"Buffer","data":[105,91,76,59,223,75,74,120,152,160,42,182,21,151,96,73,195,216,137,252]},"announce":[],"urlList":[]}}